<svg width="320" height="12" viewBox="0 0 320 12" fill="none" xmlns="http://www.w3.org/2000/svg">
<path d="M0 8.65095V0H320V8.65096C320 10.3598 317.996 11.2815 316.698 10.1693L315.016 8.72737C312.769 6.80087 309.453 6.80088 307.206 8.72738L306.127 9.65193C303.88 11.5784 300.564 11.5784 298.317 9.65194L297.239 8.72736C294.991 6.80087 291.675 6.80087 289.428 8.72737L288.35 9.65193C286.103 11.5784 282.786 11.5784 280.539 9.65194L279.461 8.72738C277.214 6.80087 273.897 6.80087 271.65 8.72738L270.572 9.65193C268.325 11.5784 265.009 11.5784 262.761 9.65194L261.683 8.72738C259.436 6.80087 256.12 6.80087 253.873 8.72738L252.794 9.65194C250.547 11.5784 247.231 11.5784 244.984 9.65194L243.905 8.72737C241.658 6.80087 238.342 6.80087 236.095 8.72737L235.016 9.65193C232.769 11.5784 229.453 11.5784 227.206 9.65194L226.127 8.72738C223.88 6.80087 220.564 6.80087 218.317 8.72738L217.239 9.65194C214.991 11.5784 211.675 11.5784 209.428 9.65194L208.35 8.72737C206.103 6.80087 202.786 6.80087 200.539 8.72737L199.461 9.65193C197.214 11.5784 193.897 11.5784 191.65 9.65194L190.572 8.72737C188.325 6.80087 185.009 6.80087 182.761 8.72737L181.683 9.65194C179.436 11.5784 176.12 11.5784 173.873 9.65193L172.794 8.72738C170.547 6.80088 167.231 6.80087 164.984 8.72738L163.905 9.65193C161.658 11.5784 158.342 11.5784 156.095 9.65194L155.016 8.72737C152.769 6.80087 149.453 6.80087 147.206 8.72737L146.127 9.65194C143.88 11.5784 140.564 11.5784 138.317 9.65194L137.239 8.72738C134.991 6.80087 131.675 6.80087 129.428 8.72738L128.35 9.65194C126.103 11.5784 122.786 11.5784 120.539 9.65194L119.461 8.72737C117.214 6.80087 113.897 6.80087 111.65 8.72737L110.572 9.65194C108.325 11.5784 105.009 11.5784 102.761 9.65194L101.683 8.72737C99.4359 6.80087 96.1196 6.80087 93.8725 8.72737L92.7941 9.65194C90.547 11.5784 87.2307 11.5784 84.9836 9.65193L83.9052 8.72738C81.6581 6.80087 78.3419 6.80087 76.0948 8.72737L75.0163 9.65194C72.7692 11.5784 69.453 11.5784 67.2059 9.65194L66.1275 8.72738C63.8804 6.80087 60.5641 6.80087 58.317 8.72737L57.2386 9.65194C54.9915 11.5784 51.6752 11.5784 49.4281 9.65194L48.3497 8.72737C46.1026 6.80087 42.7863 6.80087 40.5392 8.72737L39.4608 9.65193C37.2137 11.5784 33.8974 11.5784 31.6503 9.65194L30.5719 8.72738C28.3248 6.80087 25.0085 6.80087 22.7614 8.72737L21.683 9.65194C19.4359 11.5784 16.1196 11.5784 13.8725 9.65194L12.7941 8.72738C10.547 6.80087 7.23076 6.80087 4.98366 8.72737L3.30174 10.1693C2.00444 11.2815 0 10.3598 0 8.65095Z" fill="#F4F6F8"/>
</svg>
