<svg width="20" height="20" viewBox="0 0 20 20" fill="none" xmlns="http://www.w3.org/2000/svg">
<path d="M17.1834 10.8926C16.8667 10.8926 16.6 10.6509 16.5584 10.3343C16.3584 8.45094 15.3417 6.74261 13.775 5.65927C13.4917 5.45927 13.425 5.07594 13.6167 4.79261C13.8167 4.50927 14.2084 4.44261 14.4834 4.63427C16.35 5.92594 17.55 7.95927 17.7917 10.2009C17.825 10.5426 17.5834 10.8509 17.2334 10.8926C17.225 10.8926 17.2 10.8926 17.1834 10.8926Z" fill="white"/>
<path d="M2.90825 10.9327C2.88325 10.9327 2.86659 10.9327 2.84159 10.9327C2.49992 10.8911 2.24992 10.5827 2.28325 10.2411C2.50825 7.9994 3.69992 5.9744 5.54159 4.66607C5.82492 4.46607 6.21659 4.53273 6.41659 4.81607C6.61659 5.0994 6.54992 5.49107 6.26659 5.69107C4.71659 6.78273 3.71659 8.49107 3.52492 10.3744C3.49992 10.6911 3.22492 10.9327 2.90825 10.9327Z" fill="white"/>
<path d="M10.0498 18.841C8.81648 18.841 7.64147 18.5577 6.54147 18.0077C6.23314 17.8493 6.10814 17.4743 6.26647 17.166C6.42481 16.8577 6.79981 16.7327 7.10814 16.891C8.90814 17.7993 11.0748 17.816 12.8915 16.941C13.1998 16.791 13.5748 16.9243 13.7248 17.2327C13.8748 17.541 13.7415 17.916 13.4331 18.066C12.3665 18.5827 11.2331 18.841 10.0498 18.841Z" fill="white"/>
<path d="M10.0501 7.03372C8.42507 7.03372 7.1084 5.71706 7.1084 4.09206C7.1084 2.46706 8.42507 1.15039 10.0501 1.15039C11.6751 1.15039 12.9917 2.46706 12.9917 4.09206C12.9917 5.71706 11.6667 7.03372 10.0501 7.03372ZM10.0501 2.40872C9.11673 2.40872 8.3584 3.16706 8.3584 4.10039C8.3584 5.03372 9.11673 5.79206 10.0501 5.79206C10.9834 5.79206 11.7417 5.03372 11.7417 4.10039C11.7417 3.16706 10.9751 2.40872 10.0501 2.40872Z" fill="white"/>
<path d="M4.02516 17.2251C2.40016 17.2251 1.0835 15.9085 1.0835 14.2835C1.0835 12.6668 2.40016 11.3418 4.02516 11.3418C5.65016 11.3418 6.96683 12.6585 6.96683 14.2835C6.96683 15.9001 5.65016 17.2251 4.02516 17.2251ZM4.02516 12.5918C3.09183 12.5918 2.3335 13.3501 2.3335 14.2835C2.3335 15.2168 3.09183 15.9751 4.02516 15.9751C4.9585 15.9751 5.71683 15.2168 5.71683 14.2835C5.71683 13.3501 4.9585 12.5918 4.02516 12.5918Z" fill="white"/>
<path d="M15.9749 17.2251C14.3499 17.2251 13.0332 15.9085 13.0332 14.2835C13.0332 12.6668 14.3499 11.3418 15.9749 11.3418C17.5999 11.3418 18.9165 12.6585 18.9165 14.2835C18.9082 15.9001 17.5915 17.2251 15.9749 17.2251ZM15.9749 12.5918C15.0415 12.5918 14.2832 13.3501 14.2832 14.2835C14.2832 15.2168 15.0415 15.9751 15.9749 15.9751C16.9082 15.9751 17.6665 15.2168 17.6665 14.2835C17.6582 13.3501 16.9082 12.5918 15.9749 12.5918Z" fill="white"/>
</svg>
