<svg width="40" height="40" viewBox="0 0 40 40" fill="none" xmlns="http://www.w3.org/2000/svg">
<path d="M10.614 14.8866C10.8918 14.6644 11.1973 14.5464 11.5307 14.5325C11.864 14.5186 12.1557 14.6366 12.4057 14.8866L19.739 22.22L27.114 14.845C27.3362 14.6228 27.6348 14.5186 28.0098 14.5325C28.3848 14.5464 28.6834 14.6644 28.9057 14.8866C29.1834 15.1644 29.3154 15.463 29.3015 15.7825C29.2876 16.1019 29.1557 16.3866 28.9057 16.6366L20.614 24.9283C20.4751 25.0672 20.3362 25.1644 20.1973 25.22C20.0584 25.2755 19.9057 25.3033 19.739 25.3033C19.5723 25.3033 19.4196 25.2755 19.2807 25.22C19.1418 25.1644 19.0029 25.0672 18.864 24.9283L10.614 16.6783C10.364 16.4283 10.2459 16.1366 10.2598 15.8033C10.2737 15.47 10.3918 15.1644 10.614 14.8866Z" fill="white"/>
</svg>
