<svg width="48" height="48" viewBox="0 0 48 48" fill="none" xmlns="http://www.w3.org/2000/svg">
<rect width="48" height="48" rx="12" fill="#7E8292"/>
<path d="M18.6665 30.3327H15.2398C11.6532 30.3327 9.6665 28.3593 9.6665 24.7593V15.2393C9.6665 11.6527 11.6398 9.66602 15.2398 9.66602H21.3332C24.9198 9.66602 26.9065 11.6393 26.9065 15.2393C26.9065 15.786 26.4532 16.2393 25.9065 16.2393C25.3598 16.2393 24.9065 15.786 24.9065 15.2393C24.9065 12.7327 23.8398 11.666 21.3332 11.666H15.2398C12.7332 11.666 11.6665 12.7327 11.6665 15.2393V24.7593C11.6665 27.266 12.7332 28.3327 15.2398 28.3327H18.6665C19.2132 28.3327 19.6665 28.786 19.6665 29.3327C19.6665 29.8793 19.2132 30.3327 18.6665 30.3327Z" fill="white"/>
<path d="M32.7599 38.3327H26.6666C23.0799 38.3327 21.0933 36.3593 21.0933 32.7593V23.2393C21.0933 19.6527 23.0666 17.666 26.6666 17.666H32.7599C36.3466 17.666 38.3333 19.6393 38.3333 23.2393V32.7593C38.3333 36.3593 36.3599 38.3327 32.7599 38.3327ZM26.6666 19.666C24.1599 19.666 23.0933 20.7327 23.0933 23.2393V32.7593C23.0933 35.266 24.1599 36.3327 26.6666 36.3327H32.7599C35.2666 36.3327 36.3333 35.266 36.3333 32.7593V23.2393C36.3333 20.7327 35.2666 19.666 32.7599 19.666H26.6666Z" fill="white"/>
</svg>
