<svg width="20" height="20" viewBox="0 0 20 20" fill="none" xmlns="http://www.w3.org/2000/svg">
<path d="M12.5572 5.30614C12.6683 5.44503 12.7273 5.59781 12.7343 5.76448C12.7412 5.93115 12.6822 6.07698 12.5572 6.20198L8.8905 9.86864L12.578 13.5561C12.6891 13.6673 12.7412 13.8166 12.7343 14.0041C12.7273 14.1916 12.6683 14.3409 12.5572 14.452C12.4183 14.5909 12.269 14.6568 12.1093 14.6499C11.9495 14.643 11.8072 14.577 11.6822 14.452L7.53633 10.3061C7.46689 10.2367 7.41828 10.1673 7.3905 10.0978C7.36272 10.0284 7.34883 9.95198 7.34883 9.86864C7.34883 9.78531 7.36272 9.70892 7.3905 9.63948C7.41828 9.57003 7.46689 9.50059 7.53633 9.43115L11.6613 5.30614C11.7863 5.18114 11.9322 5.12212 12.0988 5.12906C12.2655 5.13601 12.4183 5.19503 12.5572 5.30614Z" fill="#7E8292"/>
</svg>
