<svg width="20" height="20" viewBox="0 0 20 20" fill="none" xmlns="http://www.w3.org/2000/svg">
<path d="M7.44283 14.6939C7.33172 14.555 7.27269 14.4022 7.26575 14.2355C7.25881 14.0689 7.31783 13.923 7.44283 13.798L11.1095 10.1314L7.422 6.44386C7.31089 6.33274 7.25881 6.18344 7.26575 5.99594C7.27269 5.80844 7.33172 5.65913 7.44283 5.54802C7.58172 5.40913 7.73103 5.34316 7.89075 5.35011C8.05047 5.35705 8.19283 5.42302 8.31783 5.54802L12.4637 9.69385C12.5331 9.7633 12.5817 9.83274 12.6095 9.90219C12.6373 9.97163 12.6512 10.048 12.6512 10.1314C12.6512 10.2147 12.6373 10.2911 12.6095 10.3605C12.5817 10.43 12.5331 10.4994 12.4637 10.5689L8.33867 14.6939C8.21367 14.8189 8.06783 14.8779 7.90117 14.8709C7.7345 14.864 7.58172 14.805 7.44283 14.6939Z" fill="#7E8292"/>
</svg>
