<svg width="40" height="55" viewBox="0 0 40 55" fill="none" xmlns="http://www.w3.org/2000/svg">
<rect x="-0.183351" y="-0.684282" width="16.5101" height="24.3151" rx="2.5" transform="matrix(0.865093 0.501612 -0.49839 0.866953 25.4208 7.50093)" fill="#ADB2C5" stroke="white"/>
<rect x="0.0916757" y="0.342141" width="12.4251" height="20.2246" rx="1.75" transform="matrix(0.865093 0.501612 -0.49839 0.866953 25.5486 9.06594)" stroke="white" stroke-width="0.5"/>
<rect x="-0.353932" y="-0.61303" width="18.4934" height="27.3379" rx="2.5" transform="matrix(0.965647 0.259858 -0.257784 0.966203 16.5095 5.07516)" fill="#ADB2C5" stroke="white"/>
<rect x="0.176966" y="0.306515" width="14.0778" height="22.9114" rx="1.75" transform="matrix(0.965647 0.259858 -0.257784 0.966203 17.7951 6.76125)" stroke="white" stroke-width="0.5"/>
<rect x="5.3335" y="4.5" width="20.8704" height="30.9339" rx="2.5" fill="#ADB2C5" stroke="white"/>
<rect x="7.73926" y="6.91406" width="16.0586" height="26.1079" rx="1.75" stroke="white" stroke-width="0.5"/>
<path d="M15.343 16.668H13.7123L10.8335 23.3346H12.3367L13.0381 21.7075H15.9716L16.664 23.3346H18.158L15.343 16.668ZM13.603 20.3883L14.5231 18.2687L15.4159 20.3883H13.603Z" fill="white"/>
<path d="M18.6154 16.668V23.3346H20.0002V16.668H18.6154Z" fill="white"/>
<path d="M4.376 49.72H7.256L7.88 52H9.74L6.884 43.12H4.796L1.952 52H3.752L4.376 49.72ZM6.608 47.368L6.872 48.34H4.76L5.024 47.368C5.3 46.444 5.552 45.436 5.78 44.464H5.828C6.104 45.424 6.332 46.444 6.608 47.368ZM12.1955 43.12H10.4195V52H12.1955V43.12ZM24.4552 47.476H26.0632V46.168H24.4552V41.98H22.8712V53.044H24.4552V47.476ZM17.8192 49.264V47.212H21.2752V45.976H17.8192V44.176H21.4312V42.892H16.2352V50.536H17.1712C19.0912 50.536 20.5432 50.488 22.2352 50.236L22.0912 48.976C20.6512 49.204 19.3672 49.264 17.8192 49.264ZM36.4902 51.82V50.524H32.2662V48.88H35.6142V47.608H29.2062V46.372H35.3623V42.688H27.6222V43.948H33.8023V45.136H27.6342V48.88H30.6822V50.524H26.4822V51.82H36.4902Z" fill="#7E8292"/>
</svg>
