<svg width="40" height="55" viewBox="0 0 40 55" fill="none" xmlns="http://www.w3.org/2000/svg">
<rect x="-0.183351" y="-0.684282" width="16.5101" height="24.3151" rx="2.5" transform="matrix(0.865093 0.501612 -0.49839 0.866953 25.4208 7.50093)" fill="#ADB2C5" stroke="white"/>
<rect x="0.0916757" y="0.342141" width="12.4251" height="20.2246" rx="1.75" transform="matrix(0.865093 0.501612 -0.49839 0.866953 25.5486 9.06594)" stroke="white" stroke-width="0.5"/>
<rect x="-0.353932" y="-0.61303" width="18.4934" height="27.3379" rx="2.5" transform="matrix(0.965647 0.259858 -0.257784 0.966203 16.5095 5.07516)" fill="#ADB2C5" stroke="white"/>
<rect x="0.176966" y="0.306515" width="14.0778" height="22.9114" rx="1.75" transform="matrix(0.965647 0.259858 -0.257784 0.966203 17.7951 6.76125)" stroke="white" stroke-width="0.5"/>
<rect x="5.3335" y="4.5" width="20.8704" height="30.9339" rx="2.5" fill="#ADB2C5" stroke="white"/>
<rect x="7.73926" y="6.91406" width="16.0586" height="26.1079" rx="1.75" stroke="white" stroke-width="0.5"/>
<path d="M15.343 16.668H13.7123L10.8335 23.3346H12.3367L13.0381 21.7075H15.9716L16.664 23.3346H18.158L15.343 16.668ZM13.603 20.3883L14.5231 18.2687L15.4159 20.3883H13.603Z" fill="white"/>
<path d="M18.6154 16.668V23.3346H20.0002V16.668H18.6154Z" fill="white"/>
<path d="M4.376 49.72H7.256L7.88 52H9.74L6.884 43.12H4.796L1.952 52H3.752L4.376 49.72ZM6.608 47.368L6.872 48.34H4.76L5.024 47.368C5.3 46.444 5.552 45.436 5.78 44.464H5.828C6.104 45.424 6.332 46.444 6.608 47.368ZM12.1955 43.12H10.4195V52H12.1955V43.12ZM16.3072 46.78L16.8592 48.028C18.7912 47.8 20.0752 47.056 20.7952 46.048C21.5152 47.056 22.8232 47.8 24.7072 48.028L25.2712 46.78C22.9912 46.528 21.8032 45.436 21.6112 44.5H24.8872V43.24H21.5752V42.004H19.9912V43.24H16.7032V44.5H19.9672C19.7752 45.46 18.6112 46.528 16.3072 46.78ZM21.5752 49.876H25.7992V48.592H15.8152V49.876H19.9912V53.056H21.5752V49.876ZM34.1383 41.98V45.208H32.3742V46.48H34.1383V50.164H35.7222V41.98H34.1383ZM32.3623 48.868L33.1182 47.632C31.3302 47.092 30.5382 45.82 30.5382 44.572V44.524H32.7222V43.288H30.5382V42.064H28.9542V43.288H26.7942V44.524H28.9542V44.572C28.9542 45.916 28.1862 47.236 26.4102 47.812L27.1782 49.048C28.4262 48.652 29.2902 47.872 29.7702 46.816C30.2862 47.776 31.1142 48.496 32.3623 48.868ZM35.9743 52.84V51.58H30.0222V49.48H28.4382V52.84H35.9743Z" fill="#7E8292"/>
</svg>
