<svg width="32" height="32" viewBox="0 0 32 32" fill="none" xmlns="http://www.w3.org/2000/svg">
<path fill-rule="evenodd" clip-rule="evenodd" d="M30.3334 15.9993C30.3334 23.9155 23.9162 30.3327 16.0001 30.3327C8.084 30.3327 1.66675 23.9155 1.66675 15.9993C1.66675 8.08327 8.084 1.66602 16.0001 1.66602C23.9162 1.66602 30.3334 8.08327 30.3334 15.9993ZM18.2533 16.9993H11.3334C10.7867 16.9993 10.3334 16.546 10.3334 15.9993C10.3334 15.4527 10.7867 14.9993 11.3334 14.9993H18.2535L15.9601 12.7059C15.5734 12.3193 15.5734 11.6793 15.9601 11.2926C16.3467 10.9059 16.9867 10.9059 17.3734 11.2926L21.3734 15.2925C21.7601 15.6792 21.7601 16.3192 21.3734 16.7059L17.3734 20.7059C17.1734 20.9059 16.9201 20.9992 16.6667 20.9992C16.4134 20.9992 16.1601 20.9059 15.9601 20.7059C15.5734 20.3192 15.5734 19.6792 15.9601 19.2925L18.2533 16.9993Z" fill="#3383FD"/>
</svg>
