<svg width="6" height="10" viewBox="0 0 6 10" fill="none" xmlns="http://www.w3.org/2000/svg">
<path d="M0.442833 9.6919C0.331722 9.55301 0.272694 9.40024 0.265749 9.23357C0.258805 9.0669 0.317833 8.92107 0.442833 8.79607L4.1095 5.1294L0.421999 1.4419C0.310888 1.33079 0.258805 1.18149 0.265749 0.993985C0.272694 0.806485 0.331722 0.65718 0.442833 0.546069C0.581722 0.40718 0.731027 0.341208 0.89075 0.348152C1.05047 0.355097 1.19283 0.421069 1.31783 0.546069L5.46367 4.6919C5.53311 4.76135 5.58172 4.83079 5.6095 4.90024C5.63728 4.96968 5.65117 5.04607 5.65117 5.1294C5.65117 5.21274 5.63728 5.28912 5.6095 5.35857C5.58172 5.42801 5.53311 5.49746 5.46367 5.5669L1.33867 9.6919C1.21367 9.8169 1.06783 9.87593 0.901166 9.86899C0.734499 9.86204 0.581722 9.80301 0.442833 9.6919Z" fill="#7E8292"/>
</svg>
