<svg width="16" height="16" viewBox="0 0 16 16" fill="none" xmlns="http://www.w3.org/2000/svg">
    <path fill-rule="evenodd" clip-rule="evenodd" d="M7.406 1.333a1 1 0 0 0-.82.43l-.748 1.074c-.232.33-.616.491-1.024.463l-1.33-.084a1 1 0 0 0-.835.364l-.536.654a1 1 0 0 0-.178.943l.38 1.173c.06.192.067.398.025.593a1.124 1.124 0 0 1-.272.52l-.869.935a1 1 0 0 0-.24.915l.185.765a1 1 0 0 0 .628.704l1.194.438a1.129 1.129 0 0 1 .718.874l.203 1.249a1 1 0 0 0 .566.746l.77.358a1 1 0 0 0 .91-.034l1.127-.631a1.169 1.169 0 0 1 1.146 0l1.186.642a1 1 0 0 0 .907.023l.768-.366a1 1 0 0 0 .558-.754l.18-1.208a1.127 1.127 0 0 1 .711-.88l1.211-.474a1 1 0 0 0 .61-.709l.18-.782a1 1 0 0 0-.241-.901l-.878-.95a1.158 1.158 0 0 1-.283-.511 1.064 1.064 0 0 1 .015-.574l.377-1.21a1 1 0 0 0-.182-.933l-.518-.63a1 1 0 0 0-.845-.361l-1.31.096a1.157 1.157 0 0 1-1.032-.486l-.74-1.055a1 1 0 0 0-.818-.426h-.856zm.383 8.925c1.271 0 2.302-1.008 2.302-2.251 0-1.243-1.03-2.251-2.302-2.251-1.271 0-2.302 1.008-2.302 2.251 0 1.243 1.031 2.251 2.302 2.251z" fill="#666"/>
</svg>
