<svg width="14" height="14" viewBox="0 0 14 14" fill="none" xmlns="http://www.w3.org/2000/svg">
<path d="M7 13.2702C3.54084 13.2702 0.729172 10.4585 0.729172 6.99935C0.729172 3.54018 3.54084 0.728516 7 0.728516C10.4592 0.728516 13.2708 3.54018 13.2708 6.99935C13.2708 10.4585 10.4592 13.2702 7 13.2702ZM7 1.60352C4.02501 1.60352 1.60417 4.02435 1.60417 6.99935C1.60417 9.97435 4.02501 12.3952 7 12.3952C9.975 12.3952 12.3958 9.97435 12.3958 6.99935C12.3958 4.02435 9.975 1.60352 7 1.60352Z" fill="#7E8292"/>
<path d="M7 8.02018C6.76083 8.02018 6.5625 7.82185 6.5625 7.58268V4.66602C6.5625 4.42685 6.76083 4.22852 7 4.22852C7.23917 4.22852 7.4375 4.42685 7.4375 4.66602V7.58268C7.4375 7.82185 7.23917 8.02018 7 8.02018Z" fill="#7E8292"/>
<path d="M7.00001 9.9157C6.92417 9.9157 6.84834 9.8982 6.77834 9.86904C6.70834 9.83987 6.64417 9.79904 6.58584 9.74654C6.53334 9.6882 6.49251 9.62987 6.46334 9.55404C6.43417 9.48404 6.41667 9.4082 6.41667 9.33237C6.41667 9.25654 6.43417 9.1807 6.46334 9.1107C6.49251 9.0407 6.53334 8.97654 6.58584 8.9182C6.64417 8.8657 6.70834 8.82487 6.77834 8.7957C6.91834 8.73737 7.08167 8.73737 7.22167 8.7957C7.29167 8.82487 7.35584 8.8657 7.41417 8.9182C7.46667 8.97654 7.50751 9.0407 7.53667 9.1107C7.56584 9.1807 7.58334 9.25654 7.58334 9.33237C7.58334 9.4082 7.56584 9.48404 7.53667 9.55404C7.50751 9.62987 7.46667 9.6882 7.41417 9.74654C7.35584 9.79904 7.29167 9.83987 7.22167 9.86904C7.15167 9.8982 7.07584 9.9157 7.00001 9.9157Z" fill="#7E8292"/>
</svg>
