<svg width="40" height="40" viewBox="0 0 40 40" fill="none" xmlns="http://www.w3.org/2000/svg">
<g clip-path="url(#clip0_817_13005)">
<path d="M25.5982 23.1859C25.5225 22.7449 25.3967 22.3173 25.2144 21.9175C24.6335 20.709 23.8234 19.6941 22.6179 19.012C20.7356 17.9497 18.4599 17.9579 16.5999 19.047C15.7578 19.5405 15.0639 20.2484 14.6195 21.0995C14.4681 21.389 14.3445 21.6898 14.2421 21.9969C13.7529 23.5043 13.7721 25.531 14.6525 26.9054C14.9435 27.3557 15.3581 27.739 15.8708 27.9286C16.3793 28.1202 16.9847 28.0986 17.4451 27.8121C18.0357 27.4433 18.1401 26.7395 18.0314 26.1121C17.8907 25.3105 17.7841 24.5233 18.0879 23.7371C18.1881 23.4868 18.3245 23.2457 18.5238 23.0612C18.6443 22.9479 18.7882 22.8572 18.9417 22.7851C19.2625 22.6347 19.6281 22.5646 19.9777 22.6213C20.5949 22.7171 21.1012 23.1807 21.374 23.7237C21.648 24.2647 21.7236 24.8767 21.7546 25.4815C21.8814 28.1058 21.2333 30.8259 20.5405 33.3471C20.4691 33.6078 20.3945 33.8674 20.3167 34.125C20.2591 34.3249 20.1525 34.5784 20.2847 34.7731C20.3422 34.8566 20.4307 34.9143 20.5266 34.9514C20.9295 35.108 21.2578 34.871 21.5275 34.6072C23.121 33.0586 24.1421 31.0608 24.8414 29.0084C25.1025 28.2408 25.3242 27.4598 25.4756 26.6654C25.6824 25.5773 25.7975 24.3358 25.5971 23.1869" fill="#009B90"/>
<path d="M37 11.0505C37 10.6569 36.6398 10.3973 36.2507 10.4107C35.8574 10.423 35.4918 10.6177 35.1326 10.7507C28.1265 13.3265 20.2272 13.8159 12.8437 12.7856C11.5807 12.6094 10.3016 12.3642 9.03105 12.1725C8.23803 12.052 7.4514 11.8779 6.64878 11.8202C5.96555 11.7707 5.11603 11.746 4.56496 12.2055C3.83483 12.8124 3.88706 13.9653 4.29956 14.7268C4.7952 15.6407 5.6639 16.3258 6.56884 16.8462C7.44713 17.3521 8.49384 17.8899 9.53841 17.8271C12.3598 17.6519 15.1759 17.3902 17.9803 17.0378C22.7619 16.4371 27.7748 15.8715 32.2675 14.0787C33.7352 13.4924 35.1838 12.7609 36.4436 11.815C36.6707 11.6502 37 11.373 37 11.0515" fill="#009B90"/>
<path d="M16.9102 8.73041C16.9102 10.2007 18.1434 11.3949 19.6676 11.3949C21.1918 11.3949 22.4197 10.2007 22.4197 8.73041C22.4197 8.51197 22.3686 8.29045 22.2716 8.09056C22.035 7.60733 21.7706 7.37242 21.7973 6.79233C21.8324 6.0103 20.7953 6 20.2357 6C19.625 6 18.9791 6.0814 18.4291 6.34826C17.991 6.56154 17.6115 6.88919 17.3461 7.28793C17.0754 7.698 16.9208 8.1802 16.9102 8.66859V8.72938" fill="#ED1651"/>
</g>
<defs>
<clipPath id="clip0_817_13005">
<rect width="33" height="29" fill="white" transform="translate(4 6)"/>
</clipPath>
</defs>
</svg>
