<svg width="40" height="40" viewBox="0 0 40 40" fill="none" xmlns="http://www.w3.org/2000/svg">
<g clip-path="url(#clip0_817_13010)">
<path d="M35.1108 21.2604C42.2109 17.9667 41.3224 14.8186 34.0961 14.1695C26.3123 13.4691 14.9372 14.985 7.0122 17.8809L5.91311 18.3059C-2.34049 21.6456 -1.55956 25.1801 5.80899 25.824C13.8601 26.5286 26.0982 25.089 34.1112 21.7116L35.1119 21.2583L35.1108 21.2604Z" fill="#0060A9"/>
<path d="M33.5789 21.9073C33.5789 21.9073 32.2218 22.0057 32.1894 21.0164V19.1015C32.1894 19.1015 32.0205 18.0452 33.5407 18.0452C33.5407 18.0452 34.5287 18.0169 34.7902 18.5477C34.7902 18.5477 34.921 18.6901 34.8851 19.2774H33.8311V18.9759C33.8311 18.9759 33.8288 18.733 33.5558 18.733C33.5558 18.733 33.2712 18.7445 33.2712 18.9487V20.9285C33.2712 20.9285 33.2584 21.1944 33.5801 21.1944C33.5801 21.1944 33.845 21.1891 33.845 20.9096V20.3369H33.5569V19.803H34.9117V20.9285C34.9117 20.9285 34.9082 21.164 34.7995 21.3033C34.7995 21.3033 34.6884 21.454 34.6468 21.4823C34.6468 21.4823 34.2823 21.9073 33.5777 21.9073" fill="white"/>
<path d="M30.7884 18.1895H29.7344L29.8084 20.3817H29.7633L28.6931 18.1895H27.4136V21.8045H28.4548L28.3923 19.5934H28.4386L29.547 21.8045H30.7884V18.1895Z" fill="white"/>
<path d="M24.2563 18.1738H23.1132V20.8854C23.1132 20.8854 22.9964 21.9114 24.5964 21.9114C24.5964 21.9114 25.9882 21.9271 25.9882 20.9336V18.1759H24.8718V20.9011C24.8718 20.9011 24.8868 21.1984 24.5814 21.1984C24.5814 21.1984 24.2598 21.2141 24.2598 20.9084L24.2574 18.1759L24.2563 18.1738Z" fill="white"/>
<path d="M21.8013 19.292V18.8387C21.8013 18.8387 21.88 18.0964 20.5611 18.0629C20.5611 18.0629 19.5233 18.0012 19.226 18.5068C19.226 18.5068 19.1091 18.6199 19.1091 19.0125V19.2962C19.1091 19.2962 19.0987 19.6239 19.2815 19.8354C19.2815 19.8354 19.3868 19.9736 19.6436 20.1264C19.6436 20.1264 20.1665 20.3808 20.4801 20.5264C20.4801 20.5264 20.7971 20.6907 20.7543 20.9514C20.7543 20.9514 20.7288 21.2184 20.4234 21.2079C20.4234 21.2079 20.1434 21.1964 20.1434 20.9336V20.6248H19.0235V21.0729C19.0235 21.0729 18.9923 21.9272 20.4315 21.9272C20.4315 21.9272 21.8071 21.9523 21.8707 21.0498V20.6866C21.8707 20.6866 21.9193 20.1327 21.3848 19.8417C21.3848 19.8417 21.099 19.6825 20.9209 19.6208C20.9209 19.6208 20.3748 19.3904 20.2672 19.2816C20.2672 19.2816 20.0532 19.0994 20.1781 18.889C20.1781 18.889 20.2302 18.7497 20.4558 18.7497C20.4558 18.7497 20.7496 18.7644 20.7496 18.9832V19.291H21.8001L21.8013 19.292Z" fill="white"/>
<path d="M13.4761 18.1875L13.3882 21.8036H14.4271L14.441 19.0784H14.522L15.0738 21.8026H16.1672L16.7121 19.0795H16.785L16.8093 21.8036H17.8551L17.7429 18.1875H16.0029L15.6512 20.1662H15.569L15.2335 18.1875H13.4761Z" fill="white"/>
<path d="M12.2717 21.8006L11.5799 18.1855H9.81209L9.12256 21.8006H10.2402L10.6509 18.998H10.7423L11.153 21.8006H12.2717Z" fill="white"/>
<path d="M8.02334 19.292L8.02103 18.8387C8.02103 18.8387 8.10086 18.0964 6.78195 18.0629C6.78195 18.0629 5.74533 18.0012 5.44684 18.5068C5.44684 18.5068 5.32999 18.6199 5.32999 19.0125V19.2962C5.32999 19.2962 5.31842 19.6239 5.50237 19.8354C5.50237 19.8354 5.60765 19.9736 5.86565 20.1264C5.86565 20.1264 6.38743 20.3808 6.70096 20.5264C6.70096 20.5264 7.01796 20.6907 6.97516 20.9514C6.97516 20.9514 6.9497 21.2184 6.64543 21.2079C6.64543 21.2079 6.36429 21.1964 6.36429 20.9336V20.6248H5.24322V21.0729C5.24322 21.0729 5.21198 21.9272 6.65237 21.9272C6.65237 21.9272 8.02681 21.9523 8.0916 21.0498V20.6866C8.0916 20.6866 8.13904 20.1327 7.60453 19.8417C7.60453 19.8417 7.31877 19.6825 7.14291 19.6208C7.14291 19.6208 6.59568 19.3904 6.48693 19.2816C6.48693 19.2816 6.27289 19.0994 6.39784 18.889C6.39784 18.889 6.45106 18.7497 6.67551 18.7497C6.67551 18.7497 6.96937 18.7644 6.96937 18.9832V19.291H8.02103L8.02334 19.292Z" fill="white"/>
</g>
<defs>
<clipPath id="clip0_817_13010">
<rect width="40" height="12" fill="white" transform="translate(0 14)"/>
</clipPath>
</defs>
</svg>
