<svg width="40" height="40" viewBox="0 0 40 40" fill="none" xmlns="http://www.w3.org/2000/svg">
<g clip-path="url(#clip0_817_12990)">
<path d="M11.788 4.39862C10.9236 4.84475 10.2792 5.60724 9.9727 6.5644L4.18881 24.5071C3.88232 25.448 3.95305 26.462 4.38527 27.3543C4.81749 28.2465 5.56405 28.9117 6.47564 29.228L25.454 35.8065C26.3735 36.1147 27.3558 36.0498 28.2202 35.5956C29.0847 35.1494 29.7291 34.3788 30.0356 33.4298L35.8273 15.4871C36.456 13.5322 35.4265 11.4151 33.5326 10.7581L14.5464 4.19583C13.6269 3.87948 12.6446 3.95248 11.7802 4.39862" fill="white"/>
<path d="M21.061 21.6349C20.0315 22.8273 18.7427 23.7845 17.2574 24.3766L16.4008 24.7173V16.403L17.2417 16.7437C18.7348 17.3358 20.0236 18.2849 21.061 19.4692C21.7997 18.2443 22.2555 16.8248 22.3498 15.2836C22.5855 11.2927 20.1651 7.63444 16.8409 6.36093L14.1062 5.41999C12.8645 4.99819 11.5521 5.69578 11.1435 6.96929L5.33601 24.9363C4.91951 26.218 5.61106 27.5969 6.85271 28.0187L20.0236 32.5612C21.3596 31.0849 22.2319 29.1381 22.3655 26.9561C22.4834 25.0175 21.9883 23.1842 21.061 21.6431M13.446 15.9163V25.2365H12.1415V15.9082H13.446V15.9163Z" fill="#00A5E3"/>
<path d="M33.1082 11.9662L21.0217 7.79688C22.6406 9.63008 23.6386 12.0635 23.6465 14.7322C23.6465 16.8412 23.0099 18.861 21.9019 20.5563C23.0178 22.2354 23.6543 24.2552 23.6622 26.3642C23.6622 28.8869 22.782 31.1986 21.3204 32.9994L25.8626 34.5649C27.1042 34.9948 28.4166 34.2891 28.8253 33.0075L34.6327 15.0486C35.0414 13.7751 34.3498 12.388 33.116 11.9662M29.9097 25.1961H28.2752L24.9117 20.5401L28.3302 15.876H29.9726L26.5541 20.5482L29.9019 25.1961H29.9097Z" fill="#004999"/>
<path d="M20.2987 20.555C19.5679 19.6628 18.672 18.9165 17.6504 18.373V22.7533C18.672 22.2017 19.5679 21.4473 20.2987 20.555Z" fill="#E8390E"/>
</g>
<defs>
<clipPath id="clip0_817_12990">
<rect width="32" height="32" fill="white" transform="translate(4 4)"/>
</clipPath>
</defs>
</svg>
