<svg width="64" height="64" viewBox="0 0 64 64" fill="none" xmlns="http://www.w3.org/2000/svg">
<g filter="url(#filter0_d_664_5561)">
<rect x="4" width="56" height="56" rx="20" fill="white"/>
</g>
<g clip-path="url(#clip0_664_5561)">
<path d="M47.4818 28.5918L47.2042 28.4176C46.2603 27.4821 44.9462 27.0786 43.188 27.1795C41.7259 27.2712 40.5691 27.8398 39.6807 28.3809C39.6807 28.3717 39.6807 28.3534 39.6807 28.3442C39.6807 27.8948 39.7363 27.3996 39.7825 26.9227C39.8381 26.4366 39.8843 25.9414 39.8843 25.4737C39.8843 25.006 39.8288 24.5474 39.6622 24.1531C39.616 24.0522 39.5327 23.9971 39.4124 23.9971C38.9404 24.0063 38.015 24.3273 37.7929 24.5199L37.6726 24.7859C37.6726 25.2994 37.5523 26.7485 37.432 26.9319L37.3673 27.1061C37.1729 29.1788 37.1637 30.9946 37.3488 32.5537C37.3673 32.7096 37.6726 32.9481 37.904 33.0306C38.1631 33.1223 38.9682 32.9114 39.4309 32.7371L39.6067 32.7096C39.7548 32.6913 39.8381 32.5721 39.8288 32.407L39.8381 31.9576C40.1712 30.6095 41.5315 29.0045 43.1324 28.7569C44.0393 28.6193 44.7519 28.8394 45.3164 29.4539C45.3904 29.564 45.557 30.5269 44.9647 31.6458C44.5205 32.4712 43.6322 33.1682 42.4662 33.5992C41.3557 34.0119 40.1434 34.1862 38.635 34.1311C38.5703 34.0944 37.2285 33.1865 37.2285 33.1865C36.0347 32.3611 34.5541 31.3248 33.2123 30.8204C32.9809 30.7287 32.5552 30.3802 32.2961 30.1692L32.1573 30.0592C31.38 29.4447 29.9086 28.4726 28.7241 27.6931C28.7241 27.6931 28.1874 27.3354 28.0856 27.2712C28.0856 27.2253 28.0856 27.1336 28.0856 27.1336C28.1226 27.097 28.8629 26.6567 28.8629 26.6567C29.8994 26.0515 30.3898 25.758 30.4916 25.6021C30.4731 25.6296 30.6304 25.5195 30.6304 25.5195L33.2123 24.0705C35.6923 22.7224 38.4962 21.1908 39.9676 19.6776L40.0416 19.4483L40.0787 19.2374C40.1712 18.9164 40.1805 18.6688 40.0972 18.3753C40.0787 18.2928 39.9954 18.2011 39.8936 18.1827C38.7461 18.0727 37.2562 18.7513 35.9051 20.0077C35.5998 20.292 35.3407 20.4296 35.0723 20.5764L34.8687 20.6864C33.3788 21.521 30.0197 23.5844 28.2614 24.7033C28.3725 22.8324 28.7241 20.1637 29.1591 17.9443L29.1128 17.6783L28.9277 17.339L28.7889 17.1005H28.7519C28.4002 16.9171 28.1134 16.9905 27.9005 17.0363L27.5489 17.1647L27.0862 17.3298C26.9936 17.3482 26.9289 17.4032 26.8918 17.4949C26.0497 19.5033 25.3557 22.8049 25.1891 25.4553C23.5142 24.4007 21.9595 23.6395 21.2007 23.2726H21.1822L21.0896 23.2451C20.8213 23.2084 20.4789 23.0158 20.1643 22.8233C20.1365 22.8049 19.5257 22.4106 19.5257 22.4106L18.5541 21.7961L18.295 21.7411C17.8785 21.8144 17.0735 22.3464 16.8329 22.7132C16.7958 22.7591 16.7866 22.8141 16.7866 22.8691C16.7866 22.9425 16.8143 23.025 16.8329 23.0984L16.8791 23.291L16.9254 23.4102C17.3881 23.8871 18.5726 24.6758 19.7293 25.2903L21.0711 25.9964L23.1163 27.1061L23.4679 27.3813L23.7085 27.5188C23.7085 27.5188 23.7363 27.5372 23.7548 27.5463C23.2088 27.904 20.0254 30.0133 20.0254 30.0133L18.0636 31.2973C17.8785 31.4257 17.1012 31.765 16.9346 31.8292C16.509 32.0035 16.1851 32.2602 16.0555 32.5537L16 32.6638L16.0555 32.7371L16.2036 32.8472L16.4072 32.9756L16.62 33.1223L16.8236 33.1498C17.166 33.1682 17.675 32.9664 18.6374 32.5537C19.5165 32.1685 21.8947 30.747 22.9127 30.1417L23.3476 29.8849C23.5234 29.9033 23.727 29.7474 23.9028 29.619C24.1064 29.4631 24.5506 29.1879 24.8282 29.0687C24.8282 29.0687 24.9948 28.977 25.1336 28.9036C25.1336 28.9495 25.1336 29.0229 25.1336 29.0229C25.1799 32.1135 25.365 34.3512 25.6981 36.0846V36.1121L25.7351 36.1854C25.9017 36.4331 26.096 37.1576 26.2626 37.8087L26.6512 39.1018L26.7623 39.221C26.9844 39.3678 27.6599 39.6246 28.1134 39.5695H28.2244L28.2984 39.4045C28.3355 39.2119 28.354 39.0193 28.354 38.8175C28.354 38.5791 28.3355 38.3223 28.3169 38.0013L28.2892 37.5336C28.1504 35.3784 28.0023 32.2694 28.0023 30.1968C28.0023 30.1417 28.0023 30.0867 28.0023 30.0317C28.3725 30.261 29.9919 31.2698 29.9919 31.2698C32.7403 33.0398 36.8953 35.7085 39.4031 36.4147C39.5327 36.4514 39.6715 36.4147 39.764 36.3322L40.1527 36.0846L40.2267 36.057C40.3748 35.9928 40.4673 35.7452 40.4858 35.4884C42.605 35.3784 45.557 34.5713 47.1301 32.6087C47.7409 31.8475 48.0185 30.9121 48.0185 30.1142C48.0185 29.4631 47.8334 28.8945 47.5003 28.5827" fill="#FCAF17"/>
</g>
<defs>
<filter id="filter0_d_664_5561" x="0" y="0" width="64" height="64" filterUnits="userSpaceOnUse" color-interpolation-filters="sRGB">
<feFlood flood-opacity="0" result="BackgroundImageFix"/>
<feColorMatrix in="SourceAlpha" type="matrix" values="0 0 0 0 0 0 0 0 0 0 0 0 0 0 0 0 0 0 127 0" result="hardAlpha"/>
<feOffset dy="4"/>
<feGaussianBlur stdDeviation="2"/>
<feComposite in2="hardAlpha" operator="out"/>
<feColorMatrix type="matrix" values="0 0 0 0 0.956863 0 0 0 0 0.964706 0 0 0 0 0.972549 0 0 0 1 0"/>
<feBlend mode="normal" in2="BackgroundImageFix" result="effect1_dropShadow_664_5561"/>
<feBlend mode="normal" in="SourceGraphic" in2="effect1_dropShadow_664_5561" result="shape"/>
</filter>
<clipPath id="clip0_664_5561">
<rect width="32" height="22.5882" fill="white" transform="translate(16 17)"/>
</clipPath>
</defs>
</svg>
