<svg width="40" height="40" viewBox="0 0 40 40" fill="none" xmlns="http://www.w3.org/2000/svg">
<g clip-path="url(#clip0_817_13007)">
<path d="M37.02 20.6393L36.72 20.4493C35.7 19.4293 34.28 18.9893 32.38 19.0993C30.8 19.1993 29.55 19.8193 28.59 20.4093C28.59 20.3993 28.59 20.3793 28.59 20.3693C28.59 19.8793 28.65 19.3393 28.7 18.8193C28.76 18.2893 28.81 17.7493 28.81 17.2393C28.81 16.7293 28.75 16.2293 28.57 15.7993C28.52 15.6893 28.43 15.6293 28.3 15.6293C27.79 15.6393 26.79 15.9893 26.55 16.1993L26.42 16.4893C26.42 17.0493 26.29 18.6293 26.16 18.8293L26.09 19.0193C25.88 21.2793 25.87 23.2593 26.07 24.9593C26.09 25.1293 26.42 25.3893 26.67 25.4793C26.95 25.5793 27.82 25.3493 28.32 25.1593L28.51 25.1293C28.67 25.1093 28.76 24.9793 28.75 24.7993L28.76 24.3093C29.12 22.8393 30.59 21.0893 32.32 20.8193C33.3 20.6693 34.07 20.9093 34.68 21.5793C34.76 21.6993 34.94 22.7493 34.3 23.9693C33.82 24.8693 32.86 25.6293 31.6 26.0993C30.4 26.5493 29.09 26.7393 27.46 26.6793C27.39 26.6393 25.94 25.6493 25.94 25.6493C24.65 24.7493 23.05 23.6193 21.6 23.0693C21.35 22.9693 20.89 22.5893 20.61 22.3593L20.46 22.2393C19.62 21.5693 18.03 20.5093 16.75 19.6593C16.75 19.6593 16.17 19.2693 16.06 19.1993C16.06 19.1493 16.06 19.0493 16.06 19.0493C16.1 19.0093 16.9 18.5293 16.9 18.5293C18.02 17.8693 18.55 17.5493 18.66 17.3793C18.64 17.4093 18.81 17.2893 18.81 17.2893L21.6 15.7093C24.28 14.2393 27.31 12.5693 28.9 10.9193L28.98 10.6693L29.02 10.4393C29.12 10.0893 29.13 9.81926 29.04 9.49926C29.02 9.40926 28.93 9.30926 28.82 9.28926C27.58 9.16926 25.97 9.90926 24.51 11.2793C24.18 11.5893 23.9 11.7393 23.61 11.8993L23.39 12.0193C21.78 12.9293 18.15 15.1793 16.25 16.3993C16.37 14.3593 16.75 11.4493 17.22 9.02926L17.17 8.73926L16.97 8.36926L16.82 8.10926H16.78C16.4 7.90926 16.09 7.98926 15.86 8.03926L15.48 8.17926L14.98 8.35926C14.88 8.37926 14.81 8.43926 14.77 8.53926C13.86 10.7293 13.11 14.3293 12.93 17.2193C11.12 16.0693 9.44 15.2393 8.62 14.8393H8.6L8.5 14.8093C8.21 14.7693 7.84 14.5593 7.5 14.3493C7.47 14.3293 6.81 13.8993 6.81 13.8993L5.76 13.2293L5.48 13.1693C5.03 13.2493 4.16 13.8293 3.9 14.2293C3.86 14.2793 3.85 14.3393 3.85 14.3993C3.85 14.4793 3.88 14.5693 3.9 14.6493L3.95 14.8593L4 14.9893C4.5 15.5093 5.78 16.3693 7.03 17.0393L8.48 17.8093L10.69 19.0193L11.07 19.3193L11.33 19.4693C11.33 19.4693 11.36 19.4893 11.38 19.4993C10.79 19.8893 7.35 22.1893 7.35 22.1893L5.23 23.5893C5.03 23.7293 4.19 24.0993 4.01 24.1693C3.55 24.3593 3.2 24.6393 3.06 24.9593L3 25.0793L3.06 25.1593L3.22 25.2793L3.44 25.4193L3.67 25.5793L3.89 25.6093C4.26 25.6293 4.81 25.4093 5.85 24.9593C6.8 24.5393 9.37 22.9893 10.47 22.3293L10.94 22.0493C11.13 22.0693 11.35 21.8993 11.54 21.7593C11.76 21.5893 12.24 21.2893 12.54 21.1593C12.54 21.1593 12.72 21.0593 12.87 20.9793C12.87 21.0293 12.87 21.1093 12.87 21.1093C12.92 24.4793 13.12 26.9193 13.48 28.8093V28.8393L13.52 28.9193C13.7 29.1893 13.91 29.9793 14.09 30.6893L14.51 32.0993L14.63 32.2293C14.87 32.3893 15.6 32.6693 16.09 32.6093H16.21L16.29 32.4293C16.33 32.2193 16.35 32.0093 16.35 31.7893C16.35 31.5293 16.33 31.2493 16.31 30.8993L16.28 30.3893C16.13 28.0393 15.97 24.6493 15.97 22.3893C15.97 22.3293 15.97 22.2693 15.97 22.2093C16.37 22.4593 18.12 23.5593 18.12 23.5593C21.09 25.4893 25.58 28.3993 28.29 29.1693C28.43 29.2093 28.58 29.1693 28.68 29.0793L29.1 28.8093L29.18 28.7793C29.34 28.7093 29.44 28.4393 29.46 28.1593C31.75 28.0393 34.94 27.1593 36.64 25.0193C37.3 24.1893 37.6 23.1693 37.6 22.2993C37.6 21.5893 37.4 20.9693 37.04 20.6293" fill="#FCAF17"/>
</g>
<defs>
<clipPath id="clip0_817_13007">
<rect width="34.58" height="24.63" fill="white" transform="translate(3 8)"/>
</clipPath>
</defs>
</svg>
