<svg width="40" height="40" viewBox="0 0 40 40" fill="none" xmlns="http://www.w3.org/2000/svg">
<g clip-path="url(#clip0_817_13001)">
<path d="M35 20.0019C35 28.2828 28.2779 35 20 35C11.7221 35 5 28.2828 5 20.0019C5 11.721 11.7164 5 20 5C28.2836 5 35 11.7153 35 20.0019Z" fill="#EF4651"/>
<path d="M12.2725 16.4477C11.8004 16.1648 11.2672 16.0845 10.7282 16.1628C11.7106 15.1153 12.2457 13.976 12.2457 12.8272C12.2457 12.722 12.2438 12.6169 12.2305 12.5099C12.1789 11.7949 11.8501 11.2578 11.3398 11.0762C10.8295 10.885 9.89101 10.9825 8.40209 12.5041L7.5076 13.5058C7.25913 13.8078 6.32067 15.23 6.14674 16.7115C5.85622 19.229 6.04162 21.7427 6.68382 23.9716C6.75836 24.2315 6.99728 24.8604 7.57449 25.0936C8.18803 25.3441 8.76907 25.042 9.28512 24.7763L9.42274 24.7075L9.95408 24.4705L10.4701 24.243L11.099 23.9677C11.55 23.7842 11.9743 23.6122 12.3891 23.2662C12.9376 22.7979 13.3409 22.1843 13.5493 21.4865C13.6563 21.1272 13.7308 20.7334 13.7691 20.2861C13.8016 19.9382 13.8379 19.2653 13.7079 18.6727C13.425 17.3671 12.7752 16.744 12.2744 16.4496L12.2725 16.4477ZM7.49995 18.3286C7.49995 18.3382 7.52862 18.6593 7.52862 18.6593C7.52289 18.7339 7.56494 18.8027 7.62992 18.8295C7.68917 18.8562 7.75607 18.8428 7.81341 18.7931C8.37342 18.3229 9.22014 17.9024 9.90248 18.1375C10.4357 18.3229 10.7989 18.8734 10.9881 19.7757C11.3761 21.6681 10.0783 22.5799 9.26983 22.9508L9.24116 22.9642L8.20523 23.4726C8.20523 23.4726 8.14598 23.4975 8.0829 23.4669C8.01983 23.4344 8.00072 23.3924 7.95867 23.2796C7.25339 20.6779 7.01448 17.9463 7.27633 15.3944C7.305 15.2032 7.39101 14.97 7.54009 14.7808L8.41165 13.8518L8.50913 13.7466C8.98122 13.2879 9.42656 13.0566 9.66547 13.156C9.86425 13.2401 9.91394 13.5593 9.91585 13.8097C9.95599 15.165 9.19911 16.5509 7.6089 18.0438C7.6089 18.0438 7.48657 18.1432 7.50186 18.3248L7.49995 18.3286Z" fill="white"/>
<path d="M24.0443 8.54152C23.7538 7.54369 23.2779 7.33342 23.1403 7.28754C21.8941 6.88994 20.6002 6.80774 19.3425 7.02757C17.456 7.37547 15.8238 8.36566 14.7401 9.81653C13.6028 11.342 13.1651 13.2459 13.5015 15.1727C13.8437 17.1053 14.8184 18.6709 16.336 19.6955C18.1135 20.894 20.4778 21.2591 23.0065 20.7277C24.5011 20.4027 25.7339 19.8216 26.6896 18.9997C27.1158 18.6288 27.198 18.1586 27.198 17.8279C27.198 17.8279 27.2209 17.5603 27.0145 16.7192C26.9591 16.5146 26.8693 16.4535 26.7259 16.4535C26.6208 16.4535 26.5118 16.5739 26.4908 16.5987C25.7779 17.4245 24.6923 17.998 23.3372 18.2656C19.8567 18.9347 17.1808 17.3098 16.5157 14.1214C16.2328 12.7412 16.4679 11.4165 17.1865 10.3919C17.909 9.35011 19.094 8.66004 20.5218 8.44594C21.6093 8.28728 22.716 8.42109 23.7079 8.8359C23.7079 8.8359 24.1342 8.96015 24.0424 8.54152H24.0443Z" fill="white"/>
</g>
<defs>
<clipPath id="clip0_817_13001">
<rect width="30" height="30" fill="white" transform="translate(5 5)"/>
</clipPath>
</defs>
</svg>
