<svg width="40" height="40" viewBox="0 0 40 40" fill="none" xmlns="http://www.w3.org/2000/svg">
<g clip-path="url(#clip0_817_12994)">
<path d="M20.0005 16.6285L14.0195 6L20.0005 8.80709L25.9849 6L20.0005 16.6285Z" fill="#FFC20E"/>
<path d="M27.8831 14.3221L31.9672 12.7017V7.11719L24.6483 10.0227L20.5932 17.2121C23.6228 17.4855 25.9847 19.8785 25.9847 22.7794C25.9847 25.8757 23.3063 28.3748 20.0005 28.3748C16.6948 28.3748 14.0132 25.8757 14.0132 22.7794C14.0132 19.8785 16.3816 17.4855 19.4041 17.2121L15.3541 10.0229L8.03515 7.11719V12.7017L12.118 14.3221C9.59794 16.3769 8 19.4049 8 22.7796C8 28.9774 13.3714 33.9994 20.0005 33.9994C26.6296 33.9994 32 28.9776 32 22.7796C32 19.4049 30.4057 16.3769 27.8831 14.3221Z" fill="#FFC20E"/>
</g>
<defs>
<clipPath id="clip0_817_12994">
<rect width="24" height="28" fill="white" transform="translate(8 6)"/>
</clipPath>
</defs>
</svg>
