<svg width="95" height="71" viewBox="0 0 95 71" fill="none" xmlns="http://www.w3.org/2000/svg">
<g filter="url(#filter0_d_673_6222)">
<rect x="4" y="2.91602" width="86.8137" height="61.839" rx="12" fill="white"/>
</g>
<path d="M45.0795 21.2726L45.5555 20.3206C43.3295 19.9426 40.9215 18.1926 40.9215 16.1486V15.1826H39.7175V16.1486C39.7175 18.1926 37.3095 19.9426 35.0835 20.3206L35.5595 21.2726C37.5475 20.8946 39.4935 19.6346 40.3195 17.8986C41.1455 19.6346 43.1335 20.8946 45.0795 21.2726ZM46.0735 25.3186V24.3806H42.9795V21.5386H41.8315V24.3806H38.9055V21.5386H37.7715V24.3806H34.6635V25.3186H46.0735ZM57.1325 22.0706H58.2805V14.3846H57.1325V22.0706ZM55.9565 20.6986L55.8865 19.8586C55.2845 19.9566 54.6685 19.9986 54.0385 20.0546V16.3866H55.2705V15.4626H48.5365V16.3866H49.7685V20.2086C49.4885 20.2226 49.2225 20.2226 48.9565 20.2226H48.2005L48.3125 21.1746C50.4405 21.1746 53.4085 21.1466 55.9565 20.6986ZM50.8885 20.1946V16.3866H52.9325V20.1106C52.2465 20.1526 51.5465 20.1806 50.8885 20.1946ZM54.1365 22.3366C51.5325 22.3366 49.9225 23.1766 49.9225 24.6326C49.9225 26.0746 51.5325 26.9146 54.1365 26.9146C56.7405 26.9146 58.3505 26.0746 58.3505 24.6326C58.3505 23.1766 56.7405 22.3366 54.1365 22.3366ZM54.1365 26.0186C52.2185 26.0186 51.0705 25.5286 51.0705 24.6326C51.0705 23.7366 52.2185 23.2326 54.1365 23.2326C56.0545 23.2326 57.2025 23.7366 57.2025 24.6326C57.2025 25.5286 56.0545 26.0186 54.1365 26.0186Z" fill="#202434"/>
<path d="M34.1041 36.4018C31.4251 36.4018 29.6201 37.7318 29.0691 40.6388C29.9051 40.7718 30.7221 40.9428 31.5391 41.0758C31.7861 39.7078 32.3371 38.6438 33.9521 38.6438C35.1871 38.6438 35.9281 39.2898 35.9091 40.6008C35.9091 41.8168 35.3201 42.6148 32.8121 42.6718V44.5718C35.7761 44.5718 36.1371 45.4838 36.1371 46.8138C36.1371 47.8778 35.3201 48.9228 33.6481 48.9228C32.2991 48.9228 31.2351 47.5738 30.9311 46.3578L28.6131 47.2698C29.3731 49.7588 30.7981 51.2028 33.6861 51.2028C36.3461 51.2028 38.6641 49.6638 38.7211 46.7568C38.7211 45.0848 38.0181 44.0018 36.3461 43.3748C37.5431 42.7858 38.4741 41.8358 38.4741 40.2208C38.5311 38.1118 36.7641 36.4588 34.1041 36.4018ZM45.4225 36.4018C42.7435 36.4018 40.9385 37.7318 40.3875 40.6388C41.2235 40.7718 42.0405 40.9428 42.8575 41.0758C43.1045 39.7078 43.6555 38.6438 45.2705 38.6438C46.5055 38.6438 47.2465 39.2898 47.2275 40.6008C47.2275 41.8168 46.6385 42.6148 44.1305 42.6718V44.5718C47.0945 44.5718 47.4555 45.4838 47.4555 46.8138C47.4555 47.8778 46.6385 48.9228 44.9665 48.9228C43.6175 48.9228 42.5535 47.5738 42.2495 46.3578L39.9315 47.2698C40.6915 49.7588 42.1165 51.2028 45.0045 51.2028C47.6645 51.2028 49.9825 49.6638 50.0395 46.7568C50.0395 45.0848 49.3365 44.0018 47.6645 43.3748C48.8615 42.7858 49.7925 41.8358 49.7925 40.2208C49.8495 38.1118 48.0825 36.4588 45.4225 36.4018ZM51.4018 40.0308V40.2018C51.4018 42.4058 52.8078 43.5648 54.8028 43.5648C56.7788 43.5648 58.2798 42.3678 58.2798 40.1448V39.8978C58.2798 37.7128 56.7788 36.5918 54.8028 36.5918C52.8078 36.5918 51.4018 37.8268 51.4018 40.0308ZM64.7778 36.6868H62.5358L53.3208 50.8418H55.6578L64.7778 36.6868ZM56.1708 39.9358L56.1518 40.1828C56.1518 41.5508 55.7718 42.0638 54.8028 42.0638C53.8338 42.0638 53.4158 41.5508 53.4158 40.1828L53.4348 39.8598C53.4348 38.5678 53.9288 38.0548 54.8598 38.0548C55.7148 38.0548 56.1708 38.5678 56.1708 39.9358ZM60.2178 47.0418V47.2128C60.2178 49.4168 61.6048 50.5568 63.5998 50.5568C65.5568 50.5568 67.0578 49.3598 67.0578 47.1558V46.9088C67.0578 44.7238 65.5568 43.6218 63.5998 43.6218C61.6048 43.6218 60.2178 44.8188 60.2178 47.0418ZM64.9678 46.9468L64.9488 47.1938C64.9488 48.5618 64.5688 49.0558 63.5998 49.0558C62.6308 49.0558 62.2128 48.5618 62.2128 47.1938L62.2318 46.8708C62.2318 45.5788 62.7258 45.0848 63.6568 45.0848C64.5118 45.0848 64.9678 45.5788 64.9678 46.9468Z" fill="#3383FD"/>
<ellipse cx="81.3342" cy="12.3926" rx="1.49679" ry="1.4961" fill="#C7D3E7"/>
<ellipse cx="13.4797" cy="12.3926" rx="1.49679" ry="1.4961" fill="#C7D3E7"/>
<ellipse cx="81.3342" cy="55.2813" rx="1.49679" ry="1.4961" fill="#C7D3E7"/>
<ellipse cx="13.4797" cy="55.2813" rx="1.49679" ry="1.4961" fill="#C7D3E7"/>
<defs>
<filter id="filter0_d_673_6222" x="0" y="0.916016" width="94.8137" height="69.8398" filterUnits="userSpaceOnUse" color-interpolation-filters="sRGB">
<feFlood flood-opacity="0" result="BackgroundImageFix"/>
<feColorMatrix in="SourceAlpha" type="matrix" values="0 0 0 0 0 0 0 0 0 0 0 0 0 0 0 0 0 0 127 0" result="hardAlpha"/>
<feOffset dy="2"/>
<feGaussianBlur stdDeviation="2"/>
<feComposite in2="hardAlpha" operator="out"/>
<feColorMatrix type="matrix" values="0 0 0 0 0.149722 0 0 0 0 0.3465 0 0 0 0 0.641667 0 0 0 0.15 0"/>
<feBlend mode="normal" in2="BackgroundImageFix" result="effect1_dropShadow_673_6222"/>
<feBlend mode="normal" in="SourceGraphic" in2="effect1_dropShadow_673_6222" result="shape"/>
</filter>
</defs>
</svg>
