<svg width="199" height="193" viewBox="0 0 199 193" fill="none" xmlns="http://www.w3.org/2000/svg">
<path d="M40.2391 164.761C51.0535 175.575 64.3681 183.556 79.0035 187.995C93.6389 192.435 109.143 193.197 124.143 190.213C139.143 187.229 153.176 180.592 164.999 170.89C176.821 161.188 186.068 148.719 191.921 134.59C197.774 120.46 200.051 105.105 198.552 89.8844C197.053 74.6641 191.824 60.0484 183.327 47.332C174.83 34.6155 163.328 24.1908 149.84 16.9813C136.352 9.77181 121.294 6 106 6V99L40.2391 164.761Z" fill="#B1B5FF"/>
<path d="M79.8368 188.244C96.8847 193.242 115.007 193.252 132.061 188.274C149.114 183.296 164.385 173.537 176.067 160.152C187.749 146.768 195.352 130.317 197.978 112.747C200.604 95.177 198.143 77.2222 190.885 61.007L106 99L79.8368 188.244Z" fill="#FAB752"/>
<path d="M40.2391 165.761C57.6799 183.202 81.3349 193 106 193C130.665 193 154.32 183.202 171.761 165.761L106 100L40.2391 165.761Z" fill="#FFEE53"/>
<path d="M39.2391 165.761C47.8749 174.397 58.1272 181.247 69.4104 185.921C80.6937 190.594 92.7871 193 105 193L105 100L39.2391 165.761Z" fill="#78DB76"/>
<path d="M39.2391 165.761C43.6521 170.174 48.4982 174.132 53.704 177.574L105 100L39.2391 165.761Z" fill="#5CC6BA"/>
<mask id="mask0_673_6213" style="mask-type:alpha" maskUnits="userSpaceOnUse" x="0" y="0" width="107" height="175">
<path d="M106.199 0V51.3662L71.7731 134.151L30.362 174.545L0.426201 109.714L16.3919 0H106.199Z" fill="#B8D4FF"/>
</mask>
<g mask="url(#mask0_673_6213)">
<ellipse rx="99.7859" ry="99.7403" transform="matrix(-1 0 0 1 106.698 99.7403)" fill="#3383FD"/>
</g>
<ellipse rx="48.8951" ry="48.374" transform="matrix(-1 0 0 1 105.199 99.7412)" fill="white"/>
</svg>
