<svg width="95" height="71" viewBox="0 0 95 71" fill="none" xmlns="http://www.w3.org/2000/svg">
<g filter="url(#filter0_d_783_12945)">
<rect x="4" y="2.91602" width="86.8137" height="61.839" rx="12" fill="white"/>
</g>
<path d="M45.0795 21.2726L45.5555 20.3206C43.3295 19.9426 40.9215 18.1926 40.9215 16.1486V15.1826H39.7175V16.1486C39.7175 18.1926 37.3095 19.9426 35.0835 20.3206L35.5595 21.2726C37.5475 20.8946 39.4935 19.6346 40.3195 17.8986C41.1455 19.6346 43.1335 20.8946 45.0795 21.2726ZM46.0735 25.3186V24.3806H42.9795V21.5386H41.8315V24.3806H38.9055V21.5386H37.7715V24.3806H34.6635V25.3186H46.0735ZM57.1325 22.0706H58.2805V14.3846H57.1325V22.0706ZM55.9565 20.6986L55.8865 19.8586C55.2845 19.9566 54.6685 19.9986 54.0385 20.0546V16.3866H55.2705V15.4626H48.5365V16.3866H49.7685V20.2086C49.4885 20.2226 49.2225 20.2226 48.9565 20.2226H48.2005L48.3125 21.1746C50.4405 21.1746 53.4085 21.1466 55.9565 20.6986ZM50.8885 20.1946V16.3866H52.9325V20.1106C52.2465 20.1526 51.5465 20.1806 50.8885 20.1946ZM54.1365 22.3366C51.5325 22.3366 49.9225 23.1766 49.9225 24.6326C49.9225 26.0746 51.5325 26.9146 54.1365 26.9146C56.7405 26.9146 58.3505 26.0746 58.3505 24.6326C58.3505 23.1766 56.7405 22.3366 54.1365 22.3366ZM54.1365 26.0186C52.2185 26.0186 51.0705 25.5286 51.0705 24.6326C51.0705 23.7366 52.2185 23.2326 54.1365 23.2326C56.0545 23.2326 57.2025 23.7366 57.2025 24.6326C57.2025 25.5286 56.0545 26.0186 54.1365 26.0186Z" fill="#202434"/>
<path d="M29.23 48.7328V36.6298H26.988L22.884 40.1638L24.385 41.8738L26.703 39.7648L26.627 40.9998V48.7328H23.853V50.8418H31.681V48.7328H29.23ZM43.7214 43.7928C43.7214 38.7388 41.4604 36.4588 38.4204 36.4588C35.4564 36.4588 33.1764 38.7388 33.1764 43.7928C33.1764 48.8088 35.4564 51.1078 38.4204 51.1078C41.4604 51.1078 43.7214 48.8088 43.7214 43.7928ZM41.0614 43.7928C41.0614 47.8208 39.8074 48.9038 38.4204 48.9038C37.1094 48.9038 35.8364 47.8208 35.8364 43.7928C35.8364 39.7458 37.1094 38.6438 38.4204 38.6438C39.8074 38.6438 41.0614 39.7458 41.0614 43.7928ZM55.0397 43.7928C55.0397 38.7388 52.7787 36.4588 49.7387 36.4588C46.7747 36.4588 44.4947 38.7388 44.4947 43.7928C44.4947 48.8088 46.7747 51.1078 49.7387 51.1078C52.7787 51.1078 55.0397 48.8088 55.0397 43.7928ZM52.3797 43.7928C52.3797 47.8208 51.1257 48.9038 49.7387 48.9038C48.4277 48.9038 47.1547 47.8208 47.1547 43.7928C47.1547 39.7458 48.4277 38.6438 49.7387 38.6438C51.1257 38.6438 52.3797 39.7458 52.3797 43.7928ZM56.1551 40.0308V40.2018C56.1551 42.4058 57.5611 43.5648 59.5561 43.5648C61.5321 43.5648 63.0331 42.3678 63.0331 40.1448V39.8978C63.0331 37.7128 61.5321 36.5918 59.5561 36.5918C57.5611 36.5918 56.1551 37.8268 56.1551 40.0308ZM69.5311 36.6868H67.2891L58.0741 50.8418H60.4111L69.5311 36.6868ZM60.9241 39.9358L60.9051 40.1828C60.9051 41.5508 60.5251 42.0638 59.5561 42.0638C58.5871 42.0638 58.1691 41.5508 58.1691 40.1828L58.1881 39.8598C58.1881 38.5678 58.6821 38.0548 59.6131 38.0548C60.4681 38.0548 60.9241 38.5678 60.9241 39.9358ZM64.9711 47.0418V47.2128C64.9711 49.4168 66.3581 50.5568 68.3531 50.5568C70.3101 50.5568 71.8111 49.3598 71.8111 47.1558V46.9088C71.8111 44.7238 70.3101 43.6218 68.3531 43.6218C66.3581 43.6218 64.9711 44.8188 64.9711 47.0418ZM69.7211 46.9468L69.7021 47.1938C69.7021 48.5618 69.3221 49.0558 68.3531 49.0558C67.3841 49.0558 66.9661 48.5618 66.9661 47.1938L66.9851 46.8708C66.9851 45.5788 67.4791 45.0848 68.4101 45.0848C69.2651 45.0848 69.7211 45.5788 69.7211 46.9468Z" fill="#3383FD"/>
<ellipse cx="81.3342" cy="12.3926" rx="1.49679" ry="1.4961" fill="#C7D3E7"/>
<ellipse cx="13.4797" cy="12.3926" rx="1.49679" ry="1.4961" fill="#C7D3E7"/>
<ellipse cx="81.3342" cy="55.2813" rx="1.49679" ry="1.4961" fill="#C7D3E7"/>
<ellipse cx="13.4797" cy="55.2813" rx="1.49679" ry="1.4961" fill="#C7D3E7"/>
<defs>
<filter id="filter0_d_783_12945" x="0" y="0.916016" width="94.8137" height="69.8398" filterUnits="userSpaceOnUse" color-interpolation-filters="sRGB">
<feFlood flood-opacity="0" result="BackgroundImageFix"/>
<feColorMatrix in="SourceAlpha" type="matrix" values="0 0 0 0 0 0 0 0 0 0 0 0 0 0 0 0 0 0 127 0" result="hardAlpha"/>
<feOffset dy="2"/>
<feGaussianBlur stdDeviation="2"/>
<feComposite in2="hardAlpha" operator="out"/>
<feColorMatrix type="matrix" values="0 0 0 0 0.149722 0 0 0 0 0.3465 0 0 0 0 0.641667 0 0 0 0.15 0"/>
<feBlend mode="normal" in2="BackgroundImageFix" result="effect1_dropShadow_783_12945"/>
<feBlend mode="normal" in="SourceGraphic" in2="effect1_dropShadow_783_12945" result="shape"/>
</filter>
</defs>
</svg>
